<?xml version="1.0" standalone="no"?>
<!DOCTYPE svg PUBLIC "-//W3C//DTD SVG 20010904//EN"
 "http://www.w3.org/TR/2001/REC-SVG-20010904/DTD/svg10.dtd">
<svg version="1.0" xmlns="http://www.w3.org/2000/svg"
 width="700.000000pt" height="700.000000pt" viewBox="0 0 700.000000 700.000000"
 preserveAspectRatio="xMidYMid meet">
<metadata>
Created by potrace 1.14, written by Peter Selinger 2001-2017
</metadata>
<g transform="translate(0.000000,700.000000) scale(0.100000,-0.100000)"
fill="#000000" stroke="none">
<path d="M1834 6242 c-76 -14 -126 -73 -126 -149 0 -50 18 -82 66 -117 l27
-21 1850 -2 1850 -1 54 -26 c186 -92 192 -351 10 -453 l-50 -28 -921 -2 c-906
-2 -922 -2 -983 -23 -35 -11 -81 -32 -104 -47 -96 -61 -177 -180 -193 -288 -4
-27 -8 -224 -8 -437 -1 -212 -4 -389 -8 -393 -4 -4 -748 -8 -1653 -8 l-1645 0
0 -1743 0 -1744 28 -1 c36 0 6886 0 6935 0 l37 1 0 1738 0 1738 -1705 -1
-1706 0 3 412 c3 401 4 412 24 440 12 15 36 37 53 47 31 18 70 19 954 20 l922
1 71 26 c308 112 455 446 323 737 -80 178 -248 300 -438 318 -61 6 -3635 11
-3667 6z m-958 -2422 c80 -63 90 -150 26 -221 -37 -41 -71 -48 -228 -46 -120
1 -140 3 -167 21 -64 44 -86 104 -64 171 22 66 69 93 172 97 114 5 241 -6 261
-22z m3663 -1 c60 -37 84 -144 44 -197 -47 -63 -60 -67 -233 -67 -173 0 -186
4 -234 68 -41 55 -16 163 47 200 26 14 218 25 298 16 30 -4 65 -13 78 -20z
m641 2 c94 -49 98 -192 6 -247 -27 -16 -52 -19 -188 -19 -171 0 -184 4 -231
67 -39 52 -18 157 39 194 52 35 311 38 374 5z m650 1 c99 -47 107 -188 13
-249 -22 -15 -51 -18 -172 -19 -161 -2 -197 6 -237 54 -56 64 -36 171 39 215
24 13 169 24 262 19 33 -2 76 -11 95 -20z m673 -7 c70 -46 83 -152 25 -212
-45 -47 -73 -53 -233 -50 -128 2 -147 4 -172 23 -84 63 -87 186 -6 240 54 36
331 36 386 -1z m-4856 -1 c49 -37 68 -71 67 -125 -1 -56 -22 -93 -73 -123 -27
-16 -53 -18 -181 -18 -95 1 -158 5 -172 13 -75 40 -102 124 -63 199 33 64 81
78 257 75 121 -1 142 -4 165 -21z m650 3 c49 -26 76 -79 71 -137 -11 -111 -54
-133 -256 -131 -154 1 -183 8 -220 56 -59 75 -19 200 72 223 17 5 91 8 166 7
105 -1 142 -5 167 -18z m667 -7 c47 -33 70 -85 61 -139 -8 -47 -46 -98 -84
-112 -14 -6 -91 -10 -172 -10 -130 0 -150 2 -182 21 -66 39 -88 129 -46 197
38 61 71 70 251 68 127 -1 139 -3 172 -25z m655 1 c86 -61 83 -192 -6 -244
-26 -15 -54 -18 -181 -18 -157 0 -187 6 -223 47 -21 24 -40 83 -34 109 2 11 4
25 4 32 2 24 63 83 95 91 17 5 94 8 172 7 129 -1 144 -3 173 -24z m-2752 -655
c67 -34 92 -120 57 -192 -33 -67 -65 -78 -234 -78 -160 0 -190 9 -232 64 -22
30 -30 92 -16 131 13 36 57 76 96 86 59 15 294 8 329 -11z m2118 -7 c93 -64
82 -202 -21 -246 -36 -16 -65 -19 -184 -17 -130 2 -144 4 -176 26 -105 72 -75
232 49 257 16 4 89 5 163 5 123 -2 138 -4 169 -25z m697 4 c67 -39 91 -123 54
-189 -37 -66 -68 -77 -230 -78 -123 -1 -146 1 -181 19 -45 23 -83 81 -79 123
1 15 2 35 3 44 2 27 52 78 91 91 22 7 88 11 173 11 114 -2 142 -5 169 -21z
m699 7 c99 -53 106 -193 11 -252 -32 -20 -48 -22 -188 -21 -157 0 -162 1 -214
45 -35 30 -50 101 -31 151 14 35 57 76 89 83 15 3 31 7 35 8 36 8 278 -4 298
-14z m712 -9 c91 -56 87 -196 -7 -244 -30 -16 -60 -20 -154 -21 -141 -2 -194
6 -231 36 -61 50 -66 152 -10 208 42 42 63 46 246 44 105 -1 126 -4 156 -23z
m697 3 c52 -30 75 -68 75 -124 -1 -55 -38 -113 -83 -132 -15 -6 -92 -11 -173
-11 -127 0 -151 2 -180 19 -79 46 -97 165 -34 224 39 36 83 45 227 44 114 0
140 -3 168 -20z m695 3 c106 -54 107 -199 2 -254 -26 -13 -61 -17 -178 -17
-127 0 -151 3 -180 20 -65 38 -90 125 -55 191 33 65 75 78 247 77 100 -1 142
-5 164 -17z m-4914 -9 c97 -54 94 -204 -5 -248 -30 -14 -66 -18 -165 -18 -69
-1 -143 4 -165 9 -48 13 -83 50 -97 102 -19 70 28 153 96 170 11 2 82 5 159 6
124 1 142 -1 177 -21z m698 4 c97 -49 106 -181 18 -246 -26 -19 -44 -21 -182
-23 -173 -2 -202 6 -243 67 -45 66 -16 164 59 202 28 15 60 18 174 18 114 0
146 -3 174 -18z m-1390 -541 c79 -56 83 -160 9 -227 -35 -32 -57 -36 -208 -36
-105 1 -146 4 -168 16 -80 41 -101 144 -46 213 17 21 45 43 62 48 18 6 96 10
175 10 132 -1 147 -3 176 -24z m700 0 c86 -62 82 -191 -8 -244 -42 -25 -313
-27 -359 -3 -67 35 -95 119 -61 186 37 76 71 87 255 85 129 -2 145 -4 173 -24z
m697 4 c42 -27 62 -55 69 -97 12 -69 -32 -144 -95 -163 -13 -4 -85 -7 -160 -7
-159 2 -196 13 -229 72 -35 62 -26 122 24 173 38 38 69 44 226 42 115 -1 141
-4 165 -20z m706 -3 c67 -42 86 -139 40 -202 -40 -53 -69 -61 -220 -62 -166 0
-199 9 -236 66 -47 73 -25 163 50 202 36 18 57 20 186 19 130 -2 149 -4 180
-23z m688 11 c53 -23 92 -94 83 -152 -6 -40 -41 -88 -78 -106 -28 -13 -65 -16
-183 -16 -144 1 -148 1 -187 29 -92 65 -68 222 39 250 43 11 297 7 326 -5z
m716 -6 c100 -52 94 -200 -9 -254 -22 -11 -66 -15 -173 -15 -122 0 -149 3
-176 19 -90 53 -102 169 -24 235 33 28 69 34 215 33 105 -1 143 -5 167 -18z
m704 -2 c67 -40 90 -133 47 -195 -42 -64 -69 -72 -234 -71 -121 1 -152 5 -178
19 -101 60 -98 197 7 250 31 16 58 18 180 17 124 -1 149 -4 178 -20z m707 -1
c71 -54 88 -131 42 -198 -42 -61 -62 -67 -230 -67 -136 0 -153 2 -185 21 -94
58 -87 195 13 246 36 19 56 21 187 19 129 -1 150 -4 173 -21z m662 17 c35 -2
97 -69 105 -114 6 -30 2 -49 -16 -85 -37 -75 -62 -84 -237 -83 -126 0 -155 3
-183 19 -96 54 -92 197 8 247 35 18 57 21 169 19 72 -1 141 -2 154 -3z m-5578
-557 c38 -26 44 -35 59 -87 9 -30 -9 -97 -32 -121 -46 -45 -67 -50 -212 -52
-145 -1 -173 4 -214 40 -90 79 -45 226 74 245 20 3 93 5 162 3 117 -2 129 -4
163 -28z m682 11 c98 -46 106 -181 15 -246 -29 -21 -44 -23 -167 -25 -75 -1
-152 3 -171 8 -95 28 -133 127 -81 211 39 62 77 73 257 71 82 -1 119 -6 147
-19z m709 -2 c72 -42 96 -122 58 -190 -38 -69 -63 -77 -235 -78 -139 0 -153 2
-186 23 -112 69 -78 234 52 261 16 3 86 5 155 4 100 -1 131 -5 156 -20z m700
0 c72 -42 96 -122 58 -190 -37 -67 -63 -76 -228 -78 -130 -2 -148 0 -185 19
-121 64 -90 243 47 268 11 1 77 2 148 1 104 -1 134 -5 160 -20z m714 -4 c92
-56 88 -188 -6 -243 -30 -18 -54 -21 -170 -22 -74 0 -148 3 -165 9 -89 29
-125 131 -75 213 39 62 68 70 246 67 119 -2 140 -5 170 -24z m697 6 c20 -9 43
-33 57 -56 37 -68 17 -140 -54 -193 -25 -19 -42 -21 -180 -21 -146 0 -154 1
-188 25 -115 78 -74 241 66 260 83 11 264 2 299 -15z m668 11 c35 -6 76 -41
98 -83 20 -40 9 -116 -22 -147 -45 -45 -66 -50 -214 -51 -172 -2 -210 10 -245
78 -48 94 11 194 121 207 62 7 217 5 262 -4z m690 5 c14 -1 41 -11 60 -24 91
-61 81 -193 -18 -243 -36 -18 -57 -21 -180 -19 -119 1 -144 4 -173 21 -100 58
-95 202 10 251 40 19 46 19 301 14z m748 -15 c94 -49 102 -176 15 -243 -36
-27 -39 -27 -182 -28 -128 -1 -150 1 -186 19 -123 63 -94 243 43 265 70 12
279 3 310 -13z m-5637 -529 c64 -28 103 -100 87 -160 -13 -47 -56 -95 -97
-108 -56 -16 -310 -8 -340 11 -30 20 -64 75 -68 112 -7 54 39 127 91 148 37
15 291 12 327 -3z m2811 -1 c116 -49 119 -202 5 -262 -23 -12 -214 -14 -1211
-14 -652 0 -1198 3 -1214 6 -64 13 -118 89 -108 151 8 50 32 88 74 112 36 20
40 20 1229 21 992 0 1198 -2 1225 -14z m717 -5 c96 -51 105 -176 16 -242 -29
-22 -41 -24 -181 -27 -166 -3 -198 5 -239 61 -29 40 -28 122 2 164 38 53 71
63 227 63 118 0 146 -3 175 -19z m699 1 c54 -27 76 -65 76 -127 0 -62 -21 -97
-75 -126 -29 -16 -57 -19 -173 -19 -151 0 -189 9 -225 54 -45 59 -40 137 13
190 42 42 46 43 215 45 111 1 141 -2 169 -17z m697 3 c85 -34 114 -139 59
-211 -45 -58 -68 -65 -228 -64 -124 2 -147 5 -179 23 -100 55 -90 198 17 255
33 17 286 15 331 -3z m715 -6 c70 -35 94 -128 53 -198 -36 -60 -56 -66 -223
-68 -141 -2 -158 -1 -192 19 -78 44 -96 150 -36 217 40 43 72 51 222 50 116
-1 146 -4 176 -20z"/>
</g>
</svg>
